<?xml version="1.0" encoding="UTF-8"?>
<!DOCTYPE svg PUBLIC "-//W3C//DTD SVG 1.1//EN" "http://www.w3.org/Graphics/SVG/1.1/DTD/svg11.dtd">
<!-- Creator: CorelDRAW -->
<svg xmlns="http://www.w3.org/2000/svg" xml:space="preserve" width="2.57156in" height="0.656433in" version="1.1" style="shape-rendering:geometricPrecision; text-rendering:geometricPrecision; image-rendering:optimizeQuality; fill-rule:evenodd; clip-rule:evenodd"
viewBox="0 0 191.06 48.77"
 xmlns:xlink="http://www.w3.org/1999/xlink"
 xmlns:xodm="http://www.corel.com/coreldraw/odm/2003">
 <defs>
  <style type="text/css">
   <![CDATA[
    .fil0 {fill:#F94900}
    .fil1 {fill:#F94900;fill-rule:nonzero}
   ]]>
  </style>
 </defs>
 <g id="Layer_x0020_1">
  <metadata id="CorelCorpID_0Corel-Layer"/>
  <g id="_2545041875216">
   <path class="fil0" d="M42.95 17.52c0.52,0.27 1.51,1.99 1.71,2.43 1.5,3.31 1.21,7.13 -0.63,9.99 -1.74,2.71 -4.26,4.07 -7.01,5.52l-8.08 4.37c-1.81,0.95 -3.59,1.92 -5.39,2.89 -3.29,1.77 -6.93,3.67 -10.18,5.48 -0.12,0.06 -0.22,0.11 -0.34,0.18l-0.28 0.21c2.9,0.12 6.04,0.01 8.97,0.01 2.84,0 5.54,-0.17 8.25,-0.72 4.73,-0.97 9.31,-3 12.47,-5.35 5.41,-4.02 9.36,-9.8 9.63,-17.22 0.09,-2.36 -0.24,-5.8 -1.08,-7.78 -0.66,-2.36 -2.54,-5.36 -3.78,-6.83 -1.63,-1.94 -3.28,-3.46 -5.55,-4.97 -4.11,-2.74 -9.67,-4.91 -15.7,-5.4l-2.31 -0.13 -11.01 0.01 3.84 2.08c1.3,0.66 2.57,1.42 3.88,2.09 3.79,1.94 7.89,4.37 11.61,6.28 1.32,0.68 2.52,1.43 3.85,2.12 1.04,0.54 4.75,2.59 5.64,3.3 0.48,0.38 1.25,0.96 1.49,1.45z"/>
   <path class="fil0" d="M7.23 0.98l24.36 15.49c0.26,0.17 0.54,0.34 0.82,0.52 0.12,0.08 0.29,0.18 0.41,0.27l0.33 0.31c0.48,0.17 1.7,1.55 2.07,2.06 0.55,0.77 1.03,1.67 1.33,2.78 0.65,2.42 -0.02,4.91 -1.18,6.55 -1.98,2.81 -6.51,4.97 -9.49,6.99 -0.84,0.57 -1.71,1.07 -2.56,1.62 -0.85,0.55 -1.66,1.08 -2.5,1.6 -1.7,1.04 -3.27,2.13 -5,3.19 -1.71,1.05 -3.3,2.16 -5,3.2 -0.62,0.38 -4.73,2.97 -4.97,3.22 0.53,-0.03 4.67,-2.41 5.51,-2.83 0.94,-0.47 1.78,-0.97 2.71,-1.46l18.91 -10.17c1.08,-0.55 4.46,-2.35 5.33,-2.95 1.45,-1.01 2.97,-2.52 3.59,-4.69 1.16,-4.03 -0.8,-6.15 -0.89,-6.68 -0.21,-0.12 -0.29,-0.28 -0.43,-0.48 -1.65,-2.19 -5.37,-3.8 -7.72,-5.11 -2.99,-1.66 -5.93,-3.18 -8.92,-4.8 -2.77,-1.49 -6.14,-3.37 -8.92,-4.8 -2.21,-1.13 -4.57,-2.54 -6.68,-3.6 -0.38,-0.19 -1.96,-0.97 -2.16,-1.21 -0.17,0.06 -0.09,0.01 -0.18,0.1l1.16 0.78c0.08,0.07 0.08,0.08 0.09,0.1z"/>
   <path class="fil0" d="M4.72 3.32c0.45,0.23 0.78,0.56 1.21,0.87 0.38,0.28 0.78,0.6 1.14,0.87 3.65,2.76 7.58,5.96 11.16,8.59l4.45 3.49c0.27,0.07 0.89,0.61 1.11,0.79 0.36,0.29 0.66,0.5 1.05,0.81 2.36,1.84 3.91,4.54 2.8,7.74 -0.3,0.88 -0.91,1.88 -1.43,2.37 -1.16,1.09 -0.66,0.64 -2.02,1.71l-6.36 4.9c-0.75,0.56 -1.35,1.08 -2.1,1.62 -0.71,0.52 -1.44,1.08 -2.11,1.62l-2.1 1.62c-0.39,0.28 -0.75,0.58 -1.1,0.84 -0.37,0.28 -0.69,0.53 -1.05,0.81 -0.7,0.55 -1.39,1.06 -2.1,1.62l-4.17 3.25c0.46,-0.09 9.01,-5.63 9.65,-6.04l4.82 -3.08c1.58,-1.07 3.21,-2.02 4.78,-3.05 2.4,-1.57 4.91,-3.06 7.24,-4.61 0.87,-0.57 1.62,-1.02 2.18,-1.7 0.56,-0.67 1.13,-1.43 1.42,-2.54 0.71,-2.75 -0.69,-5.15 -2.84,-6.6 -0.27,-0.18 -1.01,-0.58 -1.12,-0.77 -0.39,-0.12 -2.74,-1.71 -3.34,-2.08 -3.25,-1.98 -6.53,-4.24 -9.8,-6.24 -2.18,-1.34 -4.31,-2.81 -6.51,-4.15 -0.93,-0.57 -6.05,-3.97 -6.55,-4.04 0.13,0.07 0.27,0.22 0.42,0.34 0.21,0.17 0.29,0.21 0.47,0.35l0.81 0.69z"/>
   <path class="fil0" d="M3.49 6.81c0.21,0.07 1.01,0.86 1.27,1.09l1.19 1.12c0.43,0.45 0.84,0.73 1.19,1.12 0.42,0.47 0.77,0.66 1.19,1.12l1.83 1.68c0.27,0.23 2.75,2.55 2.9,2.8 0.27,0.1 2.2,1.98 2.62,2.35 0.3,0.26 0.53,0.53 0.84,0.8 3.61,3.14 3.55,7.83 -0.03,11.04l-3.37 3.19c-0.86,0.83 -2.66,2.37 -3.4,3.16 -0.27,0.29 -0.58,0.5 -0.87,0.77l-3.39 3.17c-0.75,0.8 -2.87,2.66 -3.81,3.57 -0.26,0.25 -0.28,0.23 -0.39,0.49 0.39,-0.16 0.83,-0.55 1.15,-0.78l3.02 -2.34c0.68,-0.5 1.35,-1.02 2.03,-1.55 4.66,-3.67 9.49,-7.25 14.16,-10.89 1.19,-0.93 2.9,-2.01 2.95,-4.22 0.03,-1.1 -0.44,-2.01 -0.95,-2.65 -0.68,-0.85 -3.79,-3.18 -4.93,-4.02l-0.87 -0.68c-0.14,-0.15 -0.02,-0.01 -0.08,-0.11 -0.27,-0.09 -1.79,-1.3 -2.13,-1.57 -3.35,-2.64 -6.92,-5.27 -10.28,-7.91l-3.59 -2.75c-0.67,-0.45 -0.48,-0.22 -0.51,-0.14 0.14,0.01 0.16,0.07 0.29,0.21 0.1,0.11 0.18,0.22 0.28,0.32l1.16 1.08c0.17,0.16 0.46,0.32 0.53,0.54z"/>
   <path class="fil0" d="M0.17 14.72l0 20.14 1.9 -2.21c0.6,-0.73 3.25,-3.82 3.71,-4.57 0.56,-0.9 0.87,-1.82 1.03,-3.07 0.16,-3.16 -1.23,-4.62 -2.62,-6.26 -0.67,-0.79 -1.34,-1.6 -1.99,-2.42 -0.34,-0.43 -0.68,-0.79 -1.02,-1.22 -0.17,-0.21 -0.34,-0.42 -0.5,-0.62 -0.2,-0.24 -0.28,-0.36 -0.49,-0.57l-0.03 0.79z"/>
   <path class="fil0" d="M4.23 12.88c0.27,0.12 0.82,0.88 1.08,1.17l2.06 2.42c1.82,2.04 3.28,4.64 3.28,7.86 0,4.56 -2.44,7 -4.39,9.29l-1.57 1.87c-0.57,0.62 -1.03,1.23 -1.58,1.85l-1.58 1.85c-0.49,0.64 -1.07,1.18 -1.53,1.86 0.41,-0.2 2.05,-1.78 2.52,-2.21l3.92 -3.69c0.3,-0.27 0.49,-0.51 0.79,-0.77 1.41,-1.25 3.41,-3.31 4.76,-4.49 1.24,-1.08 2.98,-2.5 3.54,-4.15 0.61,-1.81 -0.16,-3.57 -1.1,-4.55 -0.49,-0.5 -1.03,-1.03 -1.56,-1.5l-1.58 -1.47c-0.57,-0.58 -0.98,-0.93 -1.55,-1.51 -0.26,-0.26 -0.55,-0.5 -0.83,-0.74l-0.7 -0.75c-0.42,-0.22 -0.68,-0.55 -1.04,-0.93l-2.01 -1.87c-0.74,-0.65 -4.51,-4.44 -5.04,-4.58l2.06 2.49c0.16,0.21 0.38,0.46 0.55,0.64 0.26,0.29 1.44,1.61 1.52,1.89z"/>
  </g>
  <path class="fil1" d="M73.57 14.48c1.62,0 2.98,0.21 4.07,0.63 1.1,0.42 1.98,1 2.64,1.75 0.66,0.74 1.14,1.59 1.44,2.55 0.3,0.96 0.45,1.97 0.45,3.05 0,1.07 -0.16,2.1 -0.47,3.07 -0.31,0.97 -0.81,1.84 -1.5,2.6 -0.69,0.76 -1.57,1.36 -2.66,1.8 -1.09,0.44 -2.41,0.66 -3.96,0.66l-5.23 0 0 -16.1 5.23 0zm-3.24 14.24l3.24 0c1.3,0 2.38,-0.18 3.23,-0.54 0.85,-0.36 1.52,-0.85 2.02,-1.45 0.5,-0.6 0.85,-1.28 1.05,-2.02 0.21,-0.74 0.31,-1.49 0.31,-2.25 0,-0.76 -0.1,-1.5 -0.31,-2.23 -0.21,-0.73 -0.56,-1.38 -1.05,-1.97 -0.5,-0.59 -1.17,-1.05 -2.02,-1.4 -0.85,-0.35 -1.93,-0.52 -3.23,-0.52l-3.24 0 0 12.38z"/>
  <path id="_1" class="fil1" d="M87.46 13.24l0 2.4 -2.58 0 0 -2.4 2.58 0zm-2.28 4.95l1.98 0 0 12.38 -1.98 0 0 -12.38z"/>
  <path id="_2" class="fil1" d="M94.99 28.62c-0.88,0 -1.7,-0.21 -2.49,-0.63 -0.78,-0.42 -1.42,-1.03 -1.91,-1.82 -0.49,-0.79 -0.73,-1.74 -0.73,-2.85 0,-1.11 0.24,-2.06 0.72,-2.86 0.48,-0.8 1.11,-1.42 1.88,-1.86 0.78,-0.44 1.62,-0.66 2.53,-0.66 0.28,0 0.55,0.02 0.8,0.06 0.26,0.04 0.5,0.1 0.73,0.19l5.03 0 0 2.13c-0.71,0 -1.42,-0.13 -2.12,-0.4 -0.7,-0.26 -1.3,-0.54 -1.8,-0.82l-0.1 -0.1c0.58,0.31 1.05,0.69 1.42,1.11 0.37,0.43 0.65,0.91 0.84,1.45 0.19,0.54 0.28,1.12 0.28,1.75 0,1.11 -0.24,2.06 -0.71,2.85 -0.47,0.79 -1.09,1.4 -1.87,1.82 -0.78,0.42 -1.62,0.63 -2.53,0.63zm3.64 6.91l0 -0.54c0,-0.88 -0.23,-1.51 -0.68,-1.91 -0.45,-0.4 -1.13,-0.59 -2.04,-0.59l-2.48 0c-0.54,0 -1.02,-0.05 -1.42,-0.14 -0.4,-0.09 -0.74,-0.23 -1,-0.41 -0.26,-0.18 -0.46,-0.4 -0.59,-0.67 -0.13,-0.26 -0.2,-0.56 -0.2,-0.89 0,-0.63 0.19,-1.1 0.57,-1.42 0.38,-0.32 0.85,-0.52 1.41,-0.61 0.56,-0.08 1.1,-0.08 1.61,0l1.19 0.27c-0.89,0.05 -1.58,0.14 -2.07,0.27 -0.49,0.13 -0.73,0.41 -0.73,0.84 0,0.25 0.1,0.45 0.28,0.61 0.19,0.16 0.47,0.24 0.85,0.24l2.58 0c0.86,0 1.64,0.12 2.35,0.36 0.71,0.24 1.28,0.64 1.71,1.21 0.43,0.57 0.64,1.35 0.64,2.34l0 1.04 -1.98 0zm-3.64 -8.77c0.54,0 1.05,-0.13 1.52,-0.4 0.47,-0.26 0.85,-0.65 1.15,-1.16 0.3,-0.51 0.45,-1.14 0.45,-1.88 0,-0.74 -0.14,-1.37 -0.43,-1.89 -0.29,-0.52 -0.67,-0.92 -1.15,-1.19 -0.48,-0.27 -0.99,-0.41 -1.54,-0.41 -0.54,0 -1.06,0.14 -1.54,0.41 -0.48,0.27 -0.87,0.66 -1.16,1.18 -0.3,0.51 -0.45,1.15 -0.45,1.91 0,0.74 0.15,1.37 0.45,1.88 0.3,0.51 0.69,0.9 1.16,1.16 0.48,0.26 0.99,0.4 1.54,0.4z"/>
  <path id="_3" class="fil1" d="M106.34 13.24l0 2.4 -2.58 0 0 -2.4 2.58 0zm-2.28 4.95l1.98 0 0 12.38 -1.98 0 0 -12.38z"/>
  <path id="_4" class="fil1" d="M108.56 18.19l7.28 0 0 1.86 -7.28 0 0 -1.86zm2.65 -3.22l1.98 0 0 15.6 -1.98 0 0 -15.6z"/>
  <path id="_5" class="fil1" d="M122.63 30.82c-0.97,0 -1.87,-0.28 -2.69,-0.83 -0.82,-0.55 -1.47,-1.31 -1.96,-2.28 -0.49,-0.97 -0.73,-2.07 -0.73,-3.31 0,-1.24 0.25,-2.34 0.74,-3.32 0.5,-0.97 1.17,-1.74 2.02,-2.3 0.85,-0.56 1.8,-0.84 2.86,-0.84 1.16,0 2.03,0.29 2.64,0.88 0.6,0.59 1.02,1.37 1.24,2.34 0.22,0.97 0.33,2.06 0.33,3.24 0,0.63 -0.07,1.31 -0.2,2.04 -0.13,0.73 -0.36,1.44 -0.68,2.11 -0.32,0.67 -0.77,1.21 -1.35,1.63 -0.58,0.42 -1.32,0.63 -2.23,0.63zm0.5 -1.88c0.84,0 1.54,-0.21 2.09,-0.62 0.55,-0.41 0.96,-0.96 1.23,-1.65 0.26,-0.69 0.4,-1.44 0.4,-2.27 0,-0.91 -0.14,-1.7 -0.41,-2.39 -0.27,-0.69 -0.69,-1.22 -1.24,-1.61 -0.55,-0.39 -1.24,-0.58 -2.07,-0.58 -1.24,0 -2.2,0.43 -2.87,1.3 -0.68,0.87 -1.02,1.96 -1.02,3.28 0,0.87 0.17,1.66 0.51,2.34 0.34,0.69 0.8,1.22 1.39,1.61 0.59,0.39 1.25,0.58 1.99,0.58zm3.71 -10.75l1.98 0 0 12.38 -1.81 0c0,0 -0.01,-0.15 -0.04,-0.45 -0.02,-0.3 -0.05,-0.64 -0.09,-1.04 -0.03,-0.4 -0.05,-0.73 -0.05,-0.99l0 -9.91z"/>
  <polygon id="_6" class="fil1" points="132.29,13.24 134.27,13.24 134.27,30.58 132.29,30.58 "/>
  <path id="_7" class="fil1" d="M145.09 26.37l0 -1.86 7.73 0 0 1.86 -7.73 0zm-3.27 4.21l6.12 -16.1 2.08 0 6.17 16.1 -2.13 0 -5.37 -14.56 0.59 0 -5.37 14.56 -2.08 0z"/>
  <path id="_8" class="fil1" d="M168.79 30.58l-1.98 0 0 -12.38 1.98 0 0 12.38zm-1.86 -5.77l0.02 0.69c-0.02,0.2 -0.06,0.5 -0.14,0.92 -0.07,0.41 -0.2,0.87 -0.37,1.37 -0.17,0.5 -0.42,0.99 -0.74,1.45 -0.32,0.46 -0.73,0.84 -1.24,1.14 -0.5,0.3 -1.13,0.45 -1.87,0.45 -0.48,0 -0.97,-0.07 -1.47,-0.21 -0.5,-0.14 -0.97,-0.37 -1.4,-0.69 -0.43,-0.32 -0.78,-0.77 -1.04,-1.35 -0.26,-0.58 -0.4,-1.3 -0.4,-2.15l0 -8.22 1.98 0 0 7.73c0,0.74 0.12,1.32 0.36,1.75 0.24,0.42 0.57,0.72 0.98,0.9 0.41,0.18 0.87,0.27 1.39,0.27 0.84,0 1.54,-0.21 2.11,-0.64 0.56,-0.43 0.99,-0.96 1.29,-1.59 0.3,-0.63 0.48,-1.23 0.54,-1.81z"/>
  <path id="_9" class="fil1" d="M172.01 18.19l1.98 0 0 12.38 -1.98 0 0 -12.38zm5.94 1.86c-0.84,0 -1.55,0.21 -2.12,0.63 -0.57,0.42 -1.02,0.93 -1.34,1.54 -0.32,0.6 -0.53,1.18 -0.63,1.75l-0.02 -1.44c0,-0.15 0.03,-0.4 0.1,-0.74 0.07,-0.35 0.19,-0.74 0.37,-1.18 0.18,-0.44 0.43,-0.86 0.73,-1.26 0.31,-0.4 0.7,-0.74 1.18,-1 0.48,-0.26 1.06,-0.4 1.73,-0.4l0 2.11z"/>
  <path id="_10" class="fil1" d="M184.87 30.82c-0.97,0 -1.87,-0.28 -2.69,-0.83 -0.82,-0.55 -1.47,-1.31 -1.96,-2.28 -0.49,-0.97 -0.73,-2.07 -0.73,-3.31 0,-1.24 0.25,-2.34 0.74,-3.32 0.5,-0.97 1.17,-1.74 2.02,-2.3 0.85,-0.56 1.8,-0.84 2.86,-0.84 1.16,0 2.03,0.29 2.64,0.88 0.6,0.59 1.02,1.37 1.24,2.34 0.22,0.97 0.33,2.06 0.33,3.24 0,0.63 -0.07,1.31 -0.2,2.04 -0.13,0.73 -0.36,1.44 -0.68,2.11 -0.32,0.67 -0.77,1.21 -1.35,1.63 -0.58,0.42 -1.32,0.63 -2.23,0.63zm0.5 -1.88c0.84,0 1.54,-0.21 2.09,-0.62 0.55,-0.41 0.96,-0.96 1.23,-1.65 0.26,-0.69 0.4,-1.44 0.4,-2.27 0,-0.91 -0.14,-1.7 -0.41,-2.39 -0.27,-0.69 -0.69,-1.22 -1.24,-1.61 -0.55,-0.39 -1.24,-0.58 -2.07,-0.58 -1.24,0 -2.2,0.43 -2.87,1.3 -0.68,0.87 -1.02,1.96 -1.02,3.28 0,0.87 0.17,1.66 0.51,2.34 0.34,0.69 0.8,1.22 1.39,1.61 0.59,0.39 1.25,0.58 1.99,0.58zm3.71 -10.75l1.98 0 0 12.38 -1.81 0c0,0 -0.01,-0.15 -0.04,-0.45 -0.02,-0.3 -0.05,-0.64 -0.09,-1.04 -0.03,-0.4 -0.05,-0.73 -0.05,-0.99l0 -9.91z"/>
 </g>
</svg>
